<svg xmlns="http://www.w3.org/2000/svg" version="1.1" xmlns:xlink="http://www.w3.org/1999/xlink" xmlns:svgjs="http://svgjs.dev/svgjs" width="1000" height="623" viewBox="0 0 1000 623"><g transform="matrix(1,0,0,1,-0.6060606060606233,0.2522267206477409)"><svg viewBox="0 0 396 247" data-background-color="#ffffff" preserveAspectRatio="xMidYMid meet" height="623" width="1000" xmlns="http://www.w3.org/2000/svg" xmlns:xlink="http://www.w3.org/1999/xlink"><defs></defs><g id="tight-bounds" transform="matrix(1,0,0,1,0.2400000000000091,-0.09999999999999432)"><svg viewBox="0 0 395.52 247.2" height="247.2" width="395.52"><g><svg></svg></g><g><svg viewBox="0 0 395.52 247.2" height="247.2" width="395.52"><g transform="matrix(1,0,0,1,75.54432,107.50626074692379)"><svg viewBox="0 0 244.43135999999998 32.18747850615241" height="32.18747850615241" width="244.43135999999998"><g><svg viewBox="0 0 244.43135999999998 32.18747850615241" height="32.18747850615241" width="244.43135999999998"><g><svg viewBox="0 0 244.43135999999998 32.18747850615241" height="32.18747850615241" width="244.43135999999998"><g><svg viewBox="0 0 244.43135999999998 32.18747850615241" height="32.18747850615241" width="244.43135999999998"><g><svg viewBox="0 0 244.43135999999998 32.18747850615241" height="32.18747850615241" width="244.43135999999998"><g><svg viewBox="0 0 244.43135999999998 32.18747850615241" height="32.18747850615241" width="244.43135999999998"><g transform="matrix(1,0,0,1,0,0)"><svg width="244.43135999999998" viewBox="2.8600001335144043 -36.040000915527344 339.25 44.68000030517578" height="32.18747850615241" data-palette-color="#1ca7d0"><path d="M2.86 0L2.86-32.4 13.65-32.4 13.65-17.92 23.61-17.92 23.61-11.55 13.65-11.55 13.65 0 2.86 0ZM21.02-25.93L15.36-25.93 15.36-32.4 31.81-32.4 31.81-21.66 21.02-21.66 21.02-25.93ZM43.45-25.93L43.45 0 39.13 0 32.66-6.47 32.66-19.46 39.13-25.93 43.45-25.93ZM60.79-10.4L45.16-10.4 45.16-14.92 50.85-14.92 50.85-19.46 45.16-19.46 45.16-25.93 54.32-25.93 60.79-19.46 60.79-10.4ZM56.44 0L45.16 0 45.16-6.05 59.67-6.05 59.67-3.25 56.44 0ZM76.56 0L65.74 0 65.74-25.93 76.56-25.93 76.56 0ZM82.66 0L82.66-19.46 78.27-19.46 78.27-22.51 81.66-25.93 90.01-25.93 93.48-22.46 93.48 0 82.66 0ZM99.58 0L99.58-19.46 95.19-19.46 95.19-22.46 98.51-25.93 105.1-25.93 110.37-20.61 110.37 0 99.58 0ZM115.28 0L115.28-25.93 126.09-25.93 126.09 0 115.28 0ZM115.28-29.15L115.28-36.04 126.09-36.04 126.09-29.15 115.28-29.15ZM165.56-13.31L155.24-13.31 155.24 0 144.45 0 144.45-32.4 155.24-32.4 155.24-19.56 165.56-19.56 165.56-13.31ZM163.66-26.12L156.95-26.12 156.95-32.4 173.82-32.4 173.82-23.02 163.66-23.02 163.66-26.12ZM173.82 0L156.95 0 156.95-6.47 163.02-6.47 163.02-9.72 173.82-9.72 173.82 0ZM198.25-29.35L190.44-29.35 190.44 0 179.62 0 179.62-19.46 177.06-19.46 177.06-25.93 179.62-25.93 179.62-29.76 186.14-35.82 198.25-35.82 198.25-29.35ZM198.25-19.46L192.07-19.46 192.15-25.93 198.25-25.93 198.25-19.46ZM211.38-25.93L211.38 0 207.06 0 200.59-6.47 200.59-19.46 207.06-25.93 211.38-25.93ZM228.72-10.4L213.09-10.4 213.09-14.92 218.78-14.92 218.78-19.46 213.09-19.46 213.09-25.93 222.25-25.93 228.72-19.46 228.72-10.4ZM224.37 0L213.09 0 213.09-6.05 227.59-6.05 227.59-3.25 224.37 0ZM228.32 8.64L228.32 2.15 233.33 2.15 233.33-25.93 244.15-25.93 244.15 2.15 237.65 8.64 228.32 8.64ZM233.33-29.15L233.33-36.04 244.12-36.04 244.12-29.15 233.33-29.15ZM266.33-25.93L277.13-25.93 277.13 0 266.33 0 266.33-25.93ZM259.82-25.93L259.82-6.47 264.63-6.47 264.63-3.25 261.5 0 255.52 0 249.03-6.47 249.03-25.93 259.82-25.93ZM292.99-35.82L292.99 0 282.2 0 282.2-35.82 292.99-35.82ZM310.81-25.9L294.68-3.66 294.68-18.46 299.66-25.88 310.81-25.9ZM304.25-13.82L311.38 0 299.66 0 297.88-5.22 304.25-13.82ZM331.32-25.93L342.11-25.93 342.11 0 331.32 0 331.32-25.93ZM324.8-25.93L324.8-6.47 329.61-6.47 329.61-3.25 326.49 0 320.5 0 314.01-6.47 314.01-25.93 324.8-25.93Z" opacity="1" transform="matrix(1,0,0,1,0,0)" fill="#1ca7d0" class="undefined-text-0" data-fill-palette-color="primary" id="text-0"></path></svg></g></svg></g></svg></g></svg></g></svg></g></svg></g></svg></g><path d="M177.481 101.506L177.481 37.767 5.816 37.767 5.816 209.433 177.481 209.433 177.481 145.694 174.578 145.694 174.578 206.53 8.719 206.53 8.719 40.67 174.578 40.67 174.578 101.506Z" fill="#1ca7d0" stroke="transparent" data-fill-palette-color="primary"></path></svg></g></svg><rect width="395.52" height="247.2" fill="none" stroke="none" visibility="hidden"></rect></g></svg></g></svg>